<?xml version="1.0" encoding="UTF-8"?>
<svg width="161px" height="161px" viewBox="0 0 161 161" version="1.1" xmlns="http://www.w3.org/2000/svg" xmlns:xlink="http://www.w3.org/1999/xlink">
    <!-- Generator: Sketch 51.3 (57544) - http://www.bohemiancoding.com/sketch -->
    <title>Group 42</title>
    <desc>Created with Sketch.</desc>
    <defs>
        <polygon id="path-1" points="0.621131429 0.299328571 17.6916 0.299328571 17.6916 11.5180714 0.621131429 11.5180714"></polygon>
    </defs>
    <g id="Page-1" stroke="none" stroke-width="1" fill="none" fill-rule="evenodd">
        <g id="Group-42">
            <path d="M81.2328457,160.502543 C77.2052171,160.502543 73.1578743,160.200257 69.2031886,159.602914 L71.75356,142.708429 C74.8664457,143.178286 78.05556,143.416829 81.2328457,143.416829 C108.138903,143.416829 132.074674,126.328486 140.793646,100.894429 L156.956074,106.4348 C145.870074,138.774771 115.43976,160.502543 81.2328457,160.502543" id="Fill-1" fill="#003EFF"></path>
            <path d="M55.6485657,145.429657 C55.8069371,144.587857 55.8161371,143.765771 55.6748514,142.964057 C55.5335657,142.162343 55.2168229,141.419771 54.7213371,140.737 C54.2258514,140.054229 53.5161371,139.491714 52.5915371,139.049457 C51.66628,138.606543 50.7837371,138.406771 49.9406229,138.449486 C49.0988229,138.4922 48.3214229,138.710371 47.6084229,139.103343 C46.89608,139.496971 46.26128,140.0194 45.70468,140.671286 C45.14808,141.322514 44.6854514,142.032229 44.3181086,142.800429 C43.9501086,143.568629 43.6872514,144.374286 43.5295371,145.216086 C43.3711657,146.058543 43.3626229,146.880629 43.5032514,147.682343 C43.6432229,148.4834 43.9619371,149.225971 44.4574229,149.908743 C44.9522514,150.591514 45.6619657,151.154029 46.5865657,151.596943 C47.5111657,152.039857 48.3950229,152.238971 49.2368229,152.196257 C50.0786229,152.153543 50.85668,151.935371 51.5690229,151.5424 C52.2820229,151.148771 52.9168229,150.626343 53.4734229,149.975114 C54.0300229,149.323886 54.4919943,148.614171 54.8599943,147.845971 C55.22668,147.077114 55.4908514,146.272114 55.6485657,145.429657 M54.9933943,151.594314 C54.22848,152.407857 53.3623657,153.038714 52.3970229,153.485571 C51.4310229,153.932429 50.3868229,154.158486 49.26508,154.1644 C48.1446514,154.169657 46.97888,153.882486 45.7697371,153.303543 C44.5605943,152.725914 43.6064229,151.997143 42.9065657,151.120514 C42.2073657,150.243886 41.7283086,149.289057 41.4707086,148.257343 C41.2131086,147.224314 41.1611943,146.155143 41.3149657,145.047857 C41.4687371,143.941229 41.7940229,142.868771 42.2908229,141.829829 C42.78828,140.791543 43.4191371,139.865629 44.1847086,139.052086 C44.95028,138.238543 45.8157371,137.607686 46.7817371,137.160171 C47.74708,136.713314 48.7893086,136.490543 49.9071086,136.492514 C51.0255657,136.494486 52.1887086,136.784943 53.3978514,137.363886 C54.6069943,137.942171 55.5631371,138.666343 56.26628,139.535743 C56.9694229,140.405143 57.4497943,141.356686 57.7067371,142.389057 C57.9643371,143.421429 58.0169086,144.491257 57.8631371,145.597886 C57.7093657,146.704514 57.3847371,147.776971 56.8866229,148.815257 C56.3898229,149.853543 55.7589657,150.780771 54.9933943,151.594314" id="Fill-3" fill="#231F20"></path>
            <path d="M36.6299314,128.807886 C35.87816,128.157971 35.1158743,127.851743 34.34176,127.890514 C33.5676457,127.929943 32.8704171,128.307143 32.2513886,129.022771 C31.88996,129.440057 31.6685029,129.852743 31.5850457,130.261486 C31.5029029,130.669571 31.5213029,131.065829 31.6376171,131.448943 C31.7545886,131.832057 31.9523886,132.200057 32.2290457,132.554257 C32.50636,132.909114 32.82376,133.241629 33.1812457,133.551143 L37.0629886,136.910457 L40.8869029,132.492486 L36.6299314,128.807886 Z M32.4261886,135.399686 C31.4595314,134.5638 30.6183886,134.132714 29.9001314,134.106429 C29.1831886,134.079486 28.5299886,134.406086 27.9411886,135.086229 C27.5501886,135.539 27.3109886,135.958257 27.2275314,136.344657 C27.14276,136.731057 27.1651029,137.104314 27.2912743,137.463771 C27.4174457,137.823886 27.6270743,138.166257 27.9181886,138.491543 C28.2106171,138.817486 28.54116,139.1408 28.9104743,139.460171 L32.3092171,142.4022 L35.8236171,138.341714 L32.4261886,135.399686 Z M28.1376743,141.2936 C27.8629886,141.057029 27.57056,140.798114 27.2597314,140.518171 C26.94956,140.239543 26.6512171,139.9504 26.3673314,139.652057 C26.0827886,139.353714 25.8324171,139.059314 25.61556,138.766886 C25.3987029,138.475114 25.24756,138.186629 25.1588457,137.902743 C24.9584171,137.290943 24.9032171,136.637743 24.9932457,135.9438 C25.0832743,135.249857 25.4065886,134.580886 25.9638457,133.936886 C26.5519886,133.2574 27.2242457,132.811857 27.9806171,132.600257 C28.7369886,132.389971 29.5229314,132.428086 30.3371314,132.715914 L30.3680171,132.680429 C29.7253314,131.832057 29.4329029,130.953457 29.4907314,130.043314 C29.54856,129.133171 29.91656,128.2848 30.5980171,127.4982 C31.0015029,127.032943 31.4766171,126.652457 32.0253314,126.356086 C32.5747029,126.0584 33.1602171,125.882943 33.7818743,125.826429 C34.4035314,125.770571 35.0468743,125.8468 35.7105886,126.056429 C36.3736457,126.266057 37.0222457,126.643914 37.65376,127.191314 L43.8243314,132.532571 L32.7698743,145.304143 L28.1376743,141.2936 Z" id="Fill-5" fill="#231F20"></path>
            <path d="M24.9983714,116.21118 C25.5411714,116.017323 26.1023714,115.948323 26.6806571,116.003523 C27.2582857,116.058066 27.8411714,116.265066 28.4293143,116.626494 C29.0168,116.987266 29.5911429,117.548466 30.1516857,118.310751 C31.0854857,119.582323 31.4712286,120.805923 31.3076,121.982866 C31.1446286,123.159151 30.4145429,124.223723 29.118,125.17658 L28.2788286,125.792323 L26.9481143,123.98058 L27.5204857,123.561323 C27.9141143,123.270866 28.2532,122.973837 28.5370857,122.666951 C28.8209714,122.360723 29.026,122.03938 29.1502,121.702923 C29.2750571,121.367123 29.2993714,121.007009 29.2224857,120.62258 C29.1462571,120.238809 28.9445143,119.824809 28.6179143,119.379266 C28.0107143,118.553237 27.37,118.14778 26.6964286,118.163551 C26.0235143,118.178666 25.3118286,118.461894 24.5613714,119.01258 L14.6082857,126.323294 L13.2782286,124.511551 L23.4981143,117.005009 C23.9548286,116.668551 24.4555714,116.40438 24.9983714,116.21118" id="Fill-7" fill="#231F20"></path>
            <polygon id="Fill-9" fill="#231F20" points="4.69114571 107.544451 6.41877429 106.770994 10.26766 115.363137 15.1679743 113.16828 11.5799743 105.158366 13.3069457 104.384251 16.8956029 112.394166 22.2283171 110.005451 18.34986 101.347594 20.0774886 100.574137 24.8746314 111.28228 9.45937429 118.188194"></polygon>
            <path d="M3.21126,90.4247629 C2.76768857,91.3743343 2.64743143,92.4316771 2.84917429,93.5967914 C3.02266,94.5917057 3.35714571,95.4098486 3.85328857,96.0518771 C4.34811714,96.6945629 4.95006,97.1900486 5.66043143,97.5389914 C6.36883143,97.8879343 7.14623143,98.1015057 7.99197429,98.1783914 C8.83837429,98.2552771 9.69528857,98.21782 10.5653457,98.0673343 C11.51426,97.9023914 12.3922029,97.63822 13.2011457,97.2728486 C14.0107457,96.9081343 14.6895743,96.44222 15.2389457,95.8744486 C15.7896314,95.3066771 16.1885171,94.6324486 16.4369171,93.8530771 C16.6853171,93.0737057 16.7234314,92.18722 16.5506029,91.1923057 C16.4231171,90.46222 16.1911457,89.8346486 15.8507457,89.3089343 C15.5123171,88.7838771 15.0924029,88.3521343 14.5936314,88.0143629 C14.09486,87.6772486 13.5303743,87.4433057 12.89886,87.3125343 C12.2680029,87.1817629 11.60626,87.1528486 10.9149457,87.2251343 L10.52986,85.01122 C12.6655743,84.86402 14.4227743,85.3029914 15.8008029,86.3281343 C17.1801457,87.3532771 18.0548029,88.93042 18.4241171,91.0589057 C18.64886,92.3488771 18.6225743,93.5133343 18.3472314,94.5535914 C18.0718886,95.5945057 17.6013743,96.5000486 16.9350314,97.2721914 C16.2686886,98.0449914 15.4354314,98.6817629 14.4339457,99.18382 C13.4331171,99.6858771 12.3251743,100.042706 11.1134029,100.252991 C9.90228857,100.463277 8.73388857,100.49022 7.60951714,100.333163 C6.48646,100.176763 5.47051714,99.83702 4.56366,99.3139343 C3.65680286,98.7915057 2.88794571,98.0771914 2.25774571,97.1696771 C1.62886,96.26282 1.20237429,95.17262 0.98026,93.8977629 C0.829774286,93.0277057 0.803488571,92.1839343 0.900745714,91.3664486 C0.999974286,90.5489629 1.22143143,89.7978486 1.56643143,89.1137629 C1.91208857,88.4296771 2.38720286,87.8270771 2.99308857,87.3053057 C3.59897429,86.7835343 4.33366,86.3846486 5.19780286,86.10602 L5.58223143,88.3199343 C4.44471714,88.7733629 3.65417429,89.4758486 3.21126,90.4247629" id="Fill-11" fill="#231F20"></path>
            <polygon id="Fill-13" fill="#231F20" points="1.88862857 81.8658057 0 81.7389771 0.908171429 68.2609771 2.7968 68.3878057 2.41828571 74.00572 17.3827429 75.01312 17.2322571 77.2559486 2.26648571 76.2478914"></polygon>
            <polygon id="Fill-15" fill="#231F20" points="8.78159714 44.44336 23.9780257 51.8158457 22.9975686 53.8378743 7.80048286 46.4653886"></polygon>
            <polygon id="Fill-17" fill="#231F20" points="13.4399514 36.18222 29.7410371 37.1889629 29.7692943 37.1508486 18.7634657 28.9963629 20.0304371 27.28582 33.6030657 37.34142 32.1382943 39.3181057 15.9936086 38.3389629 15.9653514 38.3770771 26.8568371 46.4461343 25.5898657 48.1573343 12.0172371 38.1017343"></polygon>
            <polygon id="Fill-19" fill="#231F20" points="25.3019057 24.4479486 24.0921057 22.9923771 34.4821914 14.3588343 35.6913343 15.8144057 31.3607629 19.4135771 40.9471629 30.9490629 39.21822 32.3855771 29.6324771 20.8494343"></polygon>
            <polygon id="Fill-21" fill="#231F20" points="49.7092429 6.05116857 50.5694429 7.73674 42.1829857 12.0160543 44.6236143 16.7993971 52.4409857 12.81054 53.3018429 14.4967686 45.4838143 18.4856257 48.1393286 23.6901971 56.5901857 19.3780257 57.4497286 21.0642543 46.9978714 26.3976257 39.3204714 11.3516829"></polygon>
            <path d="M66.1224371,9.23745714 C66.5653514,9.05345714 66.9333514,8.80965714 67.2277514,8.50605714 C67.5208371,8.20311429 67.72718,7.83905714 67.84678,7.41454286 C67.9670371,6.98937143 67.9565229,6.47745714 67.8165514,5.8788 C67.6226943,5.04882857 67.23498,4.42717143 66.6527514,4.01251429 C66.0698657,3.59785714 65.2635514,3.51045714 64.2351229,3.75031429 L58.7979229,5.0186 L60.1365229,10.7561143 L64.6977514,9.69088571 C65.2050657,9.57325714 65.6795229,9.42211429 66.1224371,9.23745714 Z M63.9196943,1.88074286 C65.48698,1.51471429 66.8012657,1.61328571 67.8632086,2.17514286 C68.9258086,2.737 69.61318,3.68591429 69.9246657,5.02254286 C70.1579514,6.02074286 70.1342943,6.94928571 69.8576371,7.80685714 C69.5803229,8.66574286 68.9744371,9.34917143 68.0406371,9.85845714 L68.0518086,9.90511429 C68.5486086,9.8854 68.9731229,9.94914286 69.3220657,10.0943714 C69.6723229,10.2389429 69.9700086,10.4406857 70.2164371,10.6996 C70.4628657,10.9572 70.67118,11.2614571 70.8420371,11.6097429 C71.0122371,11.9593429 71.16798,12.328 71.3066371,12.7163714 C71.4308371,13.1086857 71.5484657,13.5102 71.6608371,13.9215714 C71.7725514,14.3322857 71.9059514,14.7305143 72.0610371,15.1149429 C72.2148086,15.5006857 72.3922371,15.8601429 72.5920086,16.1939714 C72.7911229,16.5284571 73.0382086,16.8064286 73.3332657,17.0285429 L70.8913229,17.5989429 C70.6981229,17.4655429 70.5404086,17.2598571 70.4188371,16.9799143 C70.2972657,16.7012857 70.1862086,16.3825714 70.08698,16.0250857 C69.9870943,15.6682571 69.8812943,15.2838286 69.7689229,14.8724571 C69.6572086,14.4617429 69.5159229,14.0654857 69.34638,13.6843429 C69.1912943,13.2992571 69.0256943,12.9371714 68.84958,12.5967714 C68.6734657,12.2583429 68.45398,11.9770857 68.1911229,11.7549714 C67.92958,11.5328571 67.6174371,11.3784286 67.25798,11.2923429 C66.8978657,11.2062571 66.44838,11.2259714 65.9114943,11.3514857 L60.5662943,12.5987429 L62.2052086,19.6255714 L60.0169229,20.1361714 L56.1792086,3.68657143 L63.9196943,1.88074286 Z" id="Fill-23" fill="#231F20"></path>
            <polygon id="Fill-25" fill="#231F20" points="78.6992971 0.0720885714 87.1777543 14.0311171 87.2257257 14.0324314 87.6377543 0.34086 89.7655829 0.40526 89.2576114 17.2885743 86.7985829 17.2149743 78.38584 3.39986 78.3385257 3.39854571 77.9310971 16.9481743 75.8026114 16.8837743 76.3105829 0.00046"></polygon>
            <path d="M103.05334,13.6853286 L102.56114,5.33435714 L102.515797,5.32055714 L97.5589686,12.0799286 L103.05334,13.6853286 Z M104.335426,3.7329 L105.93294,21.7977571 L103.548826,21.1005286 L103.203826,15.7007857 L96.34654,13.6978143 L93.1028829,18.0487571 L90.90014,17.4047571 L101.950654,3.03632857 L104.335426,3.7329 Z" id="Fill-27" fill="#231F20"></path>
            <polygon id="Fill-29" fill="#231F20" points="110.860789 7.81020857 111.736103 6.13252286 123.709903 12.3865514 122.833931 14.0642371 117.842931 11.4573514 110.89956 24.7513514 108.907103 23.7110943 115.851131 10.4170943"></polygon>
            <polygon id="Fill-31" fill="#231F20" points="129.4854 16.7650286 119.3792 30.2995429 117.578629 28.9550286 127.684829 15.4205143"></polygon>
            <path d="M128.19418,29.7680457 C127.730237,30.4882743 127.412837,31.2466171 127.240666,32.0424171 C127.068494,32.83756 127.082951,33.6445314 127.28338,34.4639886 C127.484466,35.2834457 127.930009,36.0720171 128.618694,36.83036 C129.308694,37.5887029 130.051266,38.1071886 130.847723,38.38516 C131.64418,38.6637886 132.446551,38.7551314 133.254837,38.6591886 C134.06378,38.56456 134.847751,38.3201029 135.608723,37.9264743 C136.369694,37.5321886 137.066266,37.0498457 137.696466,36.4768171 C138.326666,35.9037886 138.874066,35.2578171 139.338009,34.5369314 C139.801951,33.8167029 140.120009,33.0590171 140.29218,32.2632171 C140.464351,31.4674171 140.449894,30.6597886 140.248809,29.8409886 C140.047723,29.0215314 139.602837,28.23296 138.913494,27.4746171 C138.223494,26.7156171 137.480923,26.1971314 136.684466,25.9198171 C135.888666,25.6418457 135.086294,25.5505029 134.278009,25.6457886 C133.469066,25.7410743 132.684437,25.9855314 131.923466,26.37916 C131.161837,26.7721314 130.465923,27.2557886 129.835723,27.8288171 C129.205523,28.4011886 128.65878,29.04716 128.19418,29.7680457 M131.126351,24.3058743 C132.142294,23.8406171 133.181894,23.5836743 134.244494,23.5343886 C135.307094,23.4837886 136.359837,23.6684457 137.400751,24.0863886 C138.440351,24.5043314 139.411609,25.2094457 140.313866,26.2017314 C141.214809,27.19336 141.824637,28.2277029 142.142037,29.3034457 C142.45878,30.3791886 142.542237,31.44376 142.391094,32.49716 C142.240609,33.55056 141.885094,34.5605886 141.325209,35.5279029 C140.76598,36.49456 140.060209,37.3659314 139.207894,38.1400457 C138.35558,38.91416 137.422437,39.5338457 136.405837,39.9991029 C135.390551,40.4637029 134.350951,40.7213029 133.288351,40.7712457 C132.224437,40.8205314 131.175637,40.6339029 130.141294,40.21136 C129.106294,39.7868457 128.137666,39.07976 127.236723,38.0874743 C126.334466,37.0951886 125.722009,36.0641314 125.399351,34.9936457 C125.076694,33.92316 124.990609,32.8612171 125.141094,31.8078171 C125.29158,30.7544171 125.647094,29.7443886 126.207637,28.7770743 C126.766866,27.8104171 127.472637,26.9397029 128.324294,26.1655886 C129.175951,25.3914743 130.110409,24.7711314 131.126351,24.3058743" id="Fill-33" fill="#231F20"></path>
            <polygon id="Fill-35" fill="#231F20" points="150.462583 40.6557857 142.203611 54.7455857 142.22464 54.7883 154.46984 48.6499286 155.424011 50.5536714 140.322869 58.1226429 139.22084 55.9225286 147.385183 41.9602143 147.364154 41.9181571 135.245783 47.9921286 134.292269 46.0890429 149.392097 38.5194143"></polygon>
            <path d="M150.022363,68.56254 L157.144477,64.17414 L157.135277,64.12814 L148.834906,62.9617114 L150.022363,68.56254 Z M159.395849,64.97914 L144.240163,74.9387971 L143.724306,72.50934 L148.317734,69.6487971 L146.835877,62.6600829 L141.467677,61.8636257 L140.991906,59.6188257 L158.879991,62.5496829 L159.395849,64.97914 Z" id="Fill-37" fill="#231F20"></path>
            <g id="Group-41" transform="translate(143.257143, 76.388257)">
                <mask id="mask-2" fill="white">
                    <use xlink:href="#path-1"></use>
                </mask>
                <g id="Clip-40"></g>
                <polygon id="Fill-39" fill="#231F20" mask="url(#mask-2)" points="17.6555886 2.82012857 2.65893143 2.57698571 2.51370286 11.5180714 0.621131429 11.4871857 0.802502857 0.299328571 17.6917314 0.573357143"></polygon>
            </g>
        </g>
    </g>
</svg>